<svg width="64" height="64" viewBox="0 0 64 64" fill="none" xmlns="http://www.w3.org/2000/svg">
  <defs>
    <radialGradient id="g" cx="0" cy="0" r="1" gradientUnits="userSpaceOnUse" gradientTransform="translate(18 16) rotate(45) scale(60)">
      <stop stop-color="#00F3FF" stop-opacity="0.95"/>
      <stop offset="0.55" stop-color="#00F3FF" stop-opacity="0.25"/>
      <stop offset="1" stop-color="#00F3FF" stop-opacity="0"/>
    </radialGradient>
    <linearGradient id="l" x1="10" y1="12" x2="54" y2="52" gradientUnits="userSpaceOnUse">
      <stop stop-color="#00F3FF"/>
      <stop offset="1" stop-color="#A5B4FC"/>
    </linearGradient>
    <filter id="glow" x="-30%" y="-30%" width="160%" height="160%" color-interpolation-filters="sRGB">
      <feGaussianBlur stdDeviation="2.5" result="b"/>
      <feColorMatrix in="b" type="matrix" values="1 0 0 0 0  0 1 0 0 0.95  0 0 1 0 1  0 0 0 0.9 0" result="c"/>
      <feMerge>
        <feMergeNode in="c"/>
        <feMergeNode in="SourceGraphic"/>
      </feMerge>
    </filter>
  </defs>

  <rect x="6" y="6" width="52" height="52" rx="14" fill="#0B0F19"/>
  <rect x="6" y="6" width="52" height="52" rx="14" fill="url(#g)"/>

  <path d="M22.5 23.5C24.8 20.9 28.1 19.4 32 19.4C38.3 19.4 43.4 23.4 44.2 29.1H37.9C37.2 26.4 34.9 24.6 32 24.6C28.5 24.6 25.6 27.3 25.6 31.9C25.6 36.4 28.5 39.2 32.1 39.2C35.0 39.2 37.2 37.7 38.0 35.1H44.3C43.4 40.7 38.4 44.4 32.1 44.4C24.9 44.4 19.3 39.5 19.3 31.9C19.3 28.6 20.4 25.7 22.5 23.5Z" fill="url(#l)" filter="url(#glow)"/>

  <path d="M18.5 17.5H45.5" stroke="#00F3FF" stroke-opacity="0.45" stroke-width="2" stroke-linecap="round"/>
</svg>
